# xmcd
#
# Track frame offsets: 
#        150
#        14967
#        29672
#        49392
#        65975
#        80960
#        95837
#        109307
#        126867
#        141282
#
# Disc length: 2089 seconds
#
# Revision: 3
# Processed by: cddbd v1.5.2PL0 Copyright (c) Steve Scherf et al.
# Submitted via: ExactAudioCopy v1.3
#
DISCID=a908270a
DTITLE=Bellamy Brothers - Greatest Hits
DYEAR=1982
DGENRE=Country
TTITLE0=Let Your Love Flow
TTITLE1=If I Said You Had A Beautiful Body Would You Hold It Against M
TTITLE1=e
TTITLE2=You Ain't Just Whistlin' Dixie
TTITLE3=Sugar Daddy
TTITLE4=Dancin' Cowbows
TTITLE5=Lovers Live Longer
TTITLE6=Do You Love As Good As You Look
TTITLE7=For All The Wrong Reasons
TTITLE8=Get Into Reggae Cowboy
TTITLE9=Redneck Girl
EXTD=YEAR: 1995 ID3G: 2
EXTT0=
EXTT1=
EXTT2=
EXTT3=
EXTT4=
EXTT5=
EXTT6=
EXTT7=
EXTT8=
EXTT9=
PLAYORDER=
